<svg width="32" height="32" viewBox="0 0 32 32" fill="none" xmlns="http://www.w3.org/2000/svg">
<path d="M19 13.5H23" stroke="#221A28" stroke-width="2" stroke-linecap="round" stroke-linejoin="round"/>
<path d="M9 13.5H13" stroke="#221A28" stroke-width="2" stroke-linecap="round" stroke-linejoin="round"/>
<path d="M11 11.5V15.5" stroke="#221A28" stroke-width="2" stroke-linecap="round" stroke-linejoin="round"/>
<path d="M21.5024 6.96729L10.5007 6.99981C8.97245 6.99992 7.4931 7.53834 6.32232 8.52055C5.15153 9.50275 4.36414 10.866 4.09835 12.3709L4.09942 12.3711L2.05387 22.8915C1.92467 23.6245 2.03251 24.3797 2.36175 25.0472C2.69099 25.7148 3.22446 26.26 3.8847 26.6038C4.54494 26.9475 5.29756 27.0717 6.03325 26.9586C6.76894 26.8454 7.44939 26.5006 7.97578 25.9743L7.97557 25.9741L13.38 19.9998L21.5024 19.9673C23.2263 19.9673 24.8796 19.2825 26.0986 18.0635C27.3176 16.8445 28.0024 15.1912 28.0024 13.4673C28.0024 11.7434 27.3176 10.0901 26.0986 8.87109C24.8796 7.6521 23.2263 6.96729 21.5024 6.96729V6.96729Z" stroke="#221A28" stroke-width="2" stroke-linecap="round" stroke-linejoin="round"/>
<path d="M27.9035 12.3389L29.9474 22.8918C30.0766 23.6248 29.9688 24.38 29.6395 25.0475C29.3103 25.7151 28.7768 26.2603 28.1166 26.6041C27.4563 26.9478 26.7037 27.0721 25.968 26.9589C25.2323 26.8457 24.5519 26.5009 24.0255 25.9746L24.0257 25.9744L18.625 19.9791" stroke="#221A28" stroke-width="2" stroke-linecap="round" stroke-linejoin="round"/>
</svg>
