<svg width="16" height="16" viewBox="0 0 16 16" fill="none" xmlns="http://www.w3.org/2000/svg">
<g clip-path="url(#clip0)">
<path d="M4.49995 15.9996C3.29995 15.9996 2.19995 15.4996 1.29995 14.6996C-0.500049 12.8996 -0.500049 10.0996 1.29995 8.29961L1.99995 7.59961L3.39995 8.99961L2.69995 9.69961C1.69995 10.6996 1.69995 12.2996 2.69995 13.2996C3.69995 14.2996 5.29995 14.2996 6.29995 13.2996L9.29995 10.2996C10.3 9.29961 10.3 7.69961 9.29995 6.69961L8.59995 5.99961L9.99995 4.59961L10.7 5.29961C12.5 7.09961 12.5 9.89961 10.7 11.6996L7.69995 14.6996C6.89995 15.4996 5.69995 15.9996 4.49995 15.9996Z" fill="#221A28"/>
<path d="M5.99995 11.4L5.29995 10.7C3.49995 8.9 3.49995 6.1 5.29995 4.3L8.29995 1.3C9.19995 0.4 10.3 0 11.5 0C12.7 0 13.8 0.5 14.7 1.3C16.5 3.1 16.5 5.9 14.7 7.7L14 8.4L12.6 7L13.3 6.3C14.3 5.3 14.3 3.7 13.3 2.7C12.3 1.7 10.7 1.7 9.69995 2.7L6.69995 5.7C5.69995 6.7 5.69995 8.3 6.69995 9.3L7.39995 10L5.99995 11.4Z" fill="#221A28"/>
</g>
<defs>
<clipPath id="clip0">
<rect width="16" height="16" fill="white"/>
</clipPath>
</defs>
</svg>
