<svg width="146" height="129" viewBox="0 0 146 129" fill="none" xmlns="http://www.w3.org/2000/svg">
<path d="M80.14 8.44977C80.14 8.44977 68.0871 35.5022 36.2126 29.3049C4.33808 23.1077 -14.8662 66.7077 15.2684 82.6052C45.403 98.5027 24.519 116.765 44.6167 126.094C67.4592 136.696 75.9772 101.244 92.8055 104.536C129.946 111.803 152.92 99.3401 142.762 82.568C124.93 53.1268 111.982 54.2106 117.243 35.1982C122.505 16.1858 92.7901 -13.0015 80.14 8.44977Z" fill="#DAD6F9"/>
<path d="M74.322 70.1927C71.5213 75.5601 70.8147 78.4128 62.3191 83.7387C62.2532 83.7817 62.2037 83.8459 62.1788 83.9206C60.8216 88.1283 58.524 91.9718 55.4604 95.1595C55.4192 95.202 55.3901 95.2549 55.3764 95.3125C55.3627 95.3701 55.3648 95.4303 55.3825 95.4869C56.3333 98.6513 57.3625 104.357 54.4991 109.033C50.2904 115.918 47.1731 111.761 47.8223 110.202C48.3782 108.867 53.1274 105.998 52.0311 98.8331C52.0218 98.7758 51.998 98.7218 51.9619 98.6764C51.9258 98.6309 51.8786 98.5955 51.8248 98.5736C51.771 98.5517 51.7125 98.544 51.6549 98.5512C51.5973 98.5584 51.5425 98.5804 51.4958 98.6149C48.0535 101.113 44.1025 102.822 39.9244 103.619C39.878 103.627 39.8337 103.644 39.7945 103.67C39.7554 103.696 39.7222 103.73 39.6971 103.77C39.6721 103.81 39.6557 103.854 39.6492 103.901C39.6427 103.947 39.6461 103.995 39.6593 104.04C40.7245 107.854 41.2285 113.814 36.7807 119.295C34.4062 122.153 31.2574 117.976 34.4062 115.128C36.3598 113.367 36.2092 108.301 35.2947 104.399C35.2772 104.323 35.234 104.256 35.1724 104.208C35.1107 104.161 35.0346 104.136 34.9569 104.139C34.7751 104.144 34.5879 104.144 34.4062 104.144C27.9793 104.154 21.7309 102.03 16.641 98.1057C16.5944 98.0693 16.5392 98.0457 16.4807 98.0371C16.4223 98.0285 16.3626 98.0353 16.3075 98.0568C16.2525 98.0783 16.204 98.1138 16.1668 98.1597C16.1296 98.2056 16.105 98.2604 16.0954 98.3187C14.8743 106.383 19.7224 109.173 20.4133 111.241C21.1823 113.553 19.4156 115.611 17.2385 115.029C17.1913 115.015 17.1472 114.992 17.1086 114.962C10.0109 109.63 10.6292 98.459 11.4086 93.0812C11.4157 93.0372 11.4134 92.9922 11.4017 92.9492C11.39 92.9062 11.3693 92.8661 11.341 92.8318C7.37177 87.724 5.22291 81.4365 5.23565 74.9678C5.23565 63.1053 12.3178 52.8951 22.4865 48.3382C22.4872 48.3382 22.4879 48.3381 22.4885 48.3379C22.4891 48.3376 22.4897 48.3372 22.4902 48.3368C22.4907 48.3363 22.4911 48.3357 22.4913 48.3351C22.4916 48.3344 22.4917 48.3337 22.4917 48.3331C24.0556 46.3531 25.9627 43.5527 26.2537 41.5886C26.2633 41.5221 26.2925 41.4599 26.3376 41.4101C26.3827 41.3602 26.4417 41.325 26.5069 41.3088C26.5722 41.2926 26.6408 41.2962 26.704 41.3192C26.7671 41.3422 26.822 41.3835 26.8616 41.4379C27.6098 42.4459 28.7686 44.3685 28.514 46.3949C28.5035 46.4624 28.4984 46.5299 28.488 46.5975C28.4672 46.7119 28.4413 46.821 28.4152 46.9353C28.3892 47.0237 28.3684 47.1119 28.3373 47.2003C28.7007 46.8971 29.0474 46.5745 29.376 46.2338C30.1397 45.4493 31.1062 44.2697 31.522 43.0071C31.5416 42.9398 31.5817 42.8802 31.6366 42.8365C31.6916 42.7928 31.7587 42.7673 31.8287 42.7633C31.8988 42.7594 31.9684 42.7772 32.0279 42.8145C32.0873 42.8517 32.1338 42.9064 32.161 42.9711C32.431 43.6362 32.7481 44.5663 32.8572 45.5171C32.8666 45.6024 32.9075 45.6811 32.9719 45.7378C33.0363 45.7945 33.1195 45.8251 33.2053 45.8237C33.6055 45.8081 34.0055 45.7978 34.4056 45.7978C50.5184 45.7978 63.5813 58.8605 63.5813 74.9682C63.5813 75.3372 63.5761 75.7008 63.5604 76.0645C63.5581 76.12 63.5694 76.1753 63.5933 76.2255C63.6172 76.2757 63.6529 76.3193 63.6974 76.3525C63.742 76.3858 63.7939 76.4077 63.8488 76.4164C63.9037 76.425 63.9599 76.4202 64.0125 76.4023C65.748 75.7943 67.9355 74.329 69.2553 70.8425C71.7234 64.3475 71.9833 62.5289 71.2039 57.4628C70.4245 52.3966 74.1919 52.6568 74.9709 54.3452C75.7499 56.0336 77.4393 64.2173 74.322 70.1927Z" fill="#652494"/>
<path d="M23.0105 77.5275C22.9112 77.5274 22.8146 77.4944 22.736 77.4337C22.6573 77.373 22.601 77.2879 22.5757 77.1918C22.3798 76.3361 22.3377 75.4523 22.4514 74.5818C22.7073 72.6898 23.7369 71.2992 25.429 70.5601C26.5348 70.0771 27.58 70.0492 28.5356 70.4776C30.4943 71.3554 31.3282 73.8445 31.3627 73.95C31.3962 74.0624 31.3845 74.1834 31.3301 74.2873C31.2757 74.3912 31.1829 74.4697 31.0715 74.5062C30.9601 74.5427 30.8388 74.5343 30.7335 74.4827C30.6282 74.4311 30.5472 74.3404 30.5077 74.23C30.5006 74.2084 29.7589 72.0094 28.1648 71.2975C27.4511 70.9788 26.652 71.0081 25.7895 71.3848C24.3894 71.9968 23.5677 73.1039 23.3474 74.6756C23.2467 75.4385 23.2804 76.2131 23.4469 76.9644C23.4769 77.0799 23.4598 77.2026 23.3994 77.3055C23.339 77.4085 23.2402 77.4832 23.1247 77.5134C23.0874 77.5229 23.049 77.5277 23.0105 77.5275Z" fill="white"/>
<path d="M36.5759 73.4062C36.4816 73.4061 36.3897 73.3764 36.3132 73.3213C36.2367 73.2662 36.1794 73.1885 36.1495 73.0991C35.8983 72.2615 35.7989 71.3858 35.8561 70.5132C35.9888 68.6165 36.9262 67.1675 38.567 66.3232C39.6413 65.7706 40.684 65.6752 41.6669 66.0416C43.6739 66.7886 44.6659 69.2024 44.7071 69.3048C44.7504 69.4152 44.7483 69.5382 44.7013 69.6471C44.6544 69.756 44.5663 69.842 44.4563 69.8863C44.3463 69.9306 44.2232 69.9298 44.1139 69.8838C44.0045 69.8379 43.9177 69.7507 43.8724 69.6411C43.8634 69.6201 42.9833 67.4894 41.3496 66.8838C40.6148 66.6113 39.8174 66.6919 38.979 67.1235C37.6217 67.8219 36.8738 68.9743 36.756 70.549C36.7051 71.3128 36.7889 72.0795 37.0034 72.8143C37.0257 72.882 37.0317 72.9539 37.0208 73.0243C37.0099 73.0947 36.9825 73.1616 36.9408 73.2193C36.8991 73.2771 36.8443 73.3241 36.7809 73.3566C36.7175 73.3891 36.6473 73.4061 36.5761 73.4062H36.5759Z" fill="white"/>
<path d="M35.4308 82.8202C32.368 82.8202 30.0327 80.7817 29.9158 80.6782C29.8716 80.6389 29.8356 80.5914 29.8098 80.5382C29.784 80.4851 29.7689 80.4273 29.7654 80.3683C29.7619 80.3093 29.77 80.2502 29.7894 80.1944C29.8087 80.1385 29.8389 80.0871 29.8781 80.0429C29.9173 79.9987 29.9649 79.9626 30.0181 79.9368C30.0712 79.911 30.1289 79.8959 30.1879 79.8924C30.2469 79.8889 30.306 79.8971 30.3619 79.9164C30.4177 79.9358 30.4692 79.9659 30.5134 80.0052C30.5441 80.0322 33.628 82.7126 37.1002 81.6776C40.5563 80.6479 41.504 76.2596 41.5133 76.2155C41.5385 76.0998 41.6084 75.9987 41.7077 75.9341C41.807 75.8695 41.9277 75.8467 42.0437 75.8706C42.1597 75.8945 42.2617 75.9631 42.3274 76.0617C42.3931 76.1602 42.4173 76.2807 42.3948 76.397C42.1808 77.3059 41.8457 78.182 41.3984 79.0017C40.4104 80.8232 39.0134 82.0468 37.3574 82.5402C36.7322 82.7265 36.0832 82.8209 35.4308 82.8202Z" fill="white"/>
<path d="M132.435 62.791C132.396 63.768 132.297 64.7418 132.137 65.7065C129.968 78.9776 117.457 87.9732 104.186 85.8035C90.9198 83.635 81.9191 71.123 84.0888 57.8518C84.2271 57.0058 84.4099 56.1778 84.6261 55.3703C74.7834 48.686 75.3583 35.7964 77.2451 34.3674C79.1507 32.9204 81.2311 34.1397 81.0138 38.1425C80.7901 43.9553 84.3689 48.7625 86.3538 50.8563C91.001 41.5914 101.272 35.9942 112.041 37.7546C122.491 39.4629 130.288 47.5871 132.073 57.4401C134.021 56.7319 137.461 54.6881 140.248 48.8784C140.638 47.7205 140.745 46.8694 140.766 46.3568C140.78 45.8779 140.967 45.4203 141.292 45.0687C141.902 44.4312 142.981 43.7547 144.375 44.7935C144.692 45.0305 144.948 45.3401 145.12 45.6963C145.293 46.0524 145.378 46.4448 145.367 46.8405C145.28 49.9804 142.768 57.6197 132.435 62.791Z" fill="#9E51D5"/>
<path d="M117.957 67.0952C117.343 70.8541 112.173 73.1364 106.415 72.1951C100.651 71.2529 96.4771 67.4431 97.0916 63.6844C97.2085 62.9844 97.482 62.3199 97.8917 61.7404C98.0036 61.5835 98.1715 61.4755 98.3607 61.4387C98.5499 61.4019 98.746 61.439 98.9087 61.5424C100.972 62.8342 104.238 63.9733 108.006 64.5893C111.473 65.1562 114.682 65.1647 117.018 64.7216C117.208 64.6852 117.405 64.7233 117.568 64.828C117.73 64.9328 117.847 65.0962 117.892 65.2843C118.033 65.8778 118.055 66.4932 117.957 67.0952Z" fill="white"/>
<path d="M107.03 59.6376C106.965 59.6377 106.9 59.6236 106.841 59.5962C106.782 59.5689 106.729 59.5289 106.687 59.4792C106.644 59.4295 106.613 59.3712 106.596 59.3083C106.578 59.2454 106.575 59.1794 106.585 59.115C106.736 58.191 106.514 57.2448 105.968 56.4846C105.421 55.7245 104.595 55.2126 103.671 55.0615C102.747 54.9105 101.801 55.1327 101.041 55.6793C100.28 56.2259 99.7685 57.052 99.6174 57.976C99.5982 58.0938 99.5329 58.1991 99.436 58.2688C99.3391 58.3384 99.2185 58.3667 99.1007 58.3475C98.9829 58.3282 98.8776 58.263 98.8079 58.1661C98.7383 58.0692 98.71 57.9485 98.7292 57.8308C98.9188 56.6712 99.5612 55.6344 100.515 54.9485C101.469 54.2626 102.657 53.9837 103.816 54.1733C104.976 54.3628 106.012 55.0053 106.698 55.9592C107.384 56.9132 107.663 58.1006 107.474 59.2601C107.456 59.3654 107.402 59.4612 107.321 59.5303C107.24 59.5994 107.137 59.6375 107.03 59.6376Z" fill="white"/>
<path d="M117.825 61.4023C117.76 61.4022 117.695 61.388 117.636 61.3606C117.577 61.3332 117.524 61.2932 117.482 61.2435C117.44 61.1938 117.409 61.1356 117.391 61.0727C117.373 61.0099 117.37 60.944 117.38 60.8796C117.527 59.9572 117.303 59.0141 116.757 58.2568C116.21 57.4995 115.385 56.9897 114.464 56.839C113.542 56.6883 112.598 56.9091 111.839 57.4529C111.079 57.9968 110.566 58.8194 110.412 59.7406C110.403 59.7991 110.382 59.8551 110.351 59.9056C110.32 59.956 110.279 59.9998 110.231 60.0344C110.183 60.0691 110.129 60.0939 110.071 60.1075C110.014 60.1211 109.954 60.1231 109.895 60.1136C109.837 60.104 109.781 60.083 109.731 60.0518C109.68 60.0206 109.637 59.9797 109.602 59.9316C109.568 59.8835 109.543 59.829 109.53 59.7713C109.516 59.7136 109.514 59.6539 109.524 59.5954C109.717 58.4388 110.36 57.4058 111.313 56.7228C112.267 56.0398 113.452 55.7624 114.609 55.9516C115.766 56.1408 116.801 56.781 117.487 57.7319C118.173 58.6829 118.454 59.867 118.268 61.0248C118.251 61.1301 118.197 61.2259 118.116 61.295C118.035 61.3641 117.931 61.4022 117.825 61.4023Z" fill="white"/>
</svg>
