<svg width="12" height="13" viewBox="0 0 12 13" fill="none" xmlns="http://www.w3.org/2000/svg">
<path d="M6 2.34766C3.38325 2.34766 1.1145 3.93792 0 6.2607C1.1145 8.58348 3.38325 10.1737 6 10.1737C8.61675 10.1737 10.8855 8.58348 12 6.2607C10.8855 3.93792 8.61675 2.34766 6 2.34766ZM8.95875 4.42313C9.66375 4.8927 10.2615 5.52113 10.71 6.2607C10.2629 7.00019 9.66493 7.62762 8.95875 8.09826C8.07529 8.68729 7.04877 9.00028 6.00037 9.00028C4.95197 9.00028 3.92546 8.68729 3.042 8.09826C2.33614 7.6272 1.73826 6.99985 1.29075 6.2607C1.76729 5.47272 2.41471 4.8127 3.18075 4.33392C3.01589 4.80681 2.96271 5.3142 3.02571 5.81309C3.08872 6.31198 3.26605 6.78768 3.54269 7.19985C3.81932 7.61203 4.1871 7.94855 4.61487 8.18089C5.04263 8.41322 5.51776 8.53453 6 8.53453C6.48224 8.53453 6.95737 8.41322 7.38513 8.18089C7.8129 7.94855 8.18068 7.61203 8.45731 7.19985C8.73395 6.78768 8.91128 6.31198 8.97429 5.81309C9.03729 5.3142 8.98411 4.80681 8.81925 4.33392C8.86575 4.36287 8.91225 4.39261 8.958 4.42313H8.95875ZM6 5.08679C5.9999 5.39823 5.88124 5.69688 5.67012 5.91703C5.459 6.13718 5.17272 6.2608 4.87425 6.2607C4.57578 6.2606 4.28958 6.13678 4.0786 5.91648C3.86762 5.69618 3.74915 5.39745 3.74925 5.086C3.74935 4.77456 3.86801 4.47591 4.07913 4.25576C4.29025 4.03561 4.57653 3.91199 4.875 3.91209C5.17347 3.91219 5.45967 4.03602 5.67065 4.25631C5.88163 4.47661 6.0001 4.77534 6 5.08679Z" fill="white"/>
</svg>
