<svg width="150" height="150" viewBox="0 0 150 150" fill="none" xmlns="http://www.w3.org/2000/svg">
<path d="M54.5311 129.903C62.49 134.7 68.1679 132.709 70.3416 128.862C74.5453 121.422 88.5223 106.21 110.672 101.068C140.008 94.258 133.881 76.1764 115.847 66.688C97.8134 57.1996 84.3292 44.0707 86.37 29.7952C88.4108 15.5198 68.19 10.5986 59.1975 38.0597C53.3864 55.8061 42.9724 60.5605 36.3316 61.7033C30.0728 62.7804 23.2264 64.1318 19.8878 69.5342C15.8366 76.0892 17.2502 82.72 34.2117 87.2678C58.2478 93.7125 36.6917 119.15 54.5311 129.903Z" fill="#DAD6F9"/>
<path d="M33.8521 98.799C34.1889 98.6061 37.9905 96.9967 56.9028 105.814C56.8477 105.889 56.8243 105.924 56.8243 105.924C56.8243 105.924 37.1631 112.545 33.3109 104.388C32.1605 101.96 32.4901 100.288 33.8192 98.8178L33.8521 98.799Z" fill="#9E51D5"/>
<path d="M97.4178 102.135C93.3089 105.59 86.8653 108.097 80.6478 104.763C81.6303 104.135 82.6451 103.488 83.6801 102.82C89.9241 98.8077 95.424 101.492 97.4178 102.135Z" fill="#9E51D5"/>
<path d="M104.778 59.6513C108.976 94.6077 98.9993 100.952 97.8887 101.916C97.5672 102.195 97.4368 102.174 96.9507 102.049L96.9424 102.054C94.8849 101.508 89.9242 98.8073 83.68 102.819C82.645 103.488 81.6299 104.134 80.6477 104.762C74.278 108.802 69.1342 111.649 65.4283 109.997C62.285 108.393 59.4508 107.005 56.9029 105.813C37.9906 96.9964 34.189 98.6058 33.8521 98.7987C34.243 98.5858 37.8282 96.5985 42.6556 93.1037C42.6721 93.0943 42.6885 93.0849 42.692 93.072C49.1446 88.3957 57.7858 81.0265 63.9972 71.547C68.2256 65.1009 72.3622 48.7593 80.3437 45.5529C96.747 39.4336 104.097 52.541 104.778 59.6513Z" fill="#B38AE5"/>
<path d="M86.6401 59.0382C87.1493 57.6937 87.0997 56.4287 86.5293 56.2126C85.9589 55.9966 85.0837 56.9115 84.5745 58.256C84.0654 59.6005 84.115 60.8655 84.6854 61.0816C85.2558 61.2976 86.131 60.3827 86.6401 59.0382Z" fill="white"/>
<path d="M97.0844 60.7538C97.4453 59.3621 97.2592 58.1098 96.6688 57.9567C96.0784 57.8036 95.3072 58.8077 94.9464 60.1994C94.5855 61.5911 94.7716 62.8433 95.362 62.9964C95.9524 63.1495 96.7236 62.1454 97.0844 60.7538Z" fill="white"/>
<path d="M90.7269 65.8635C90.6414 65.8634 90.5584 65.834 90.4918 65.7803C90.4252 65.7266 90.379 65.6517 90.3608 65.5681C90.294 65.2654 89.9966 64.3698 89.525 64.2366C89.0534 64.1035 88.1282 64.6203 87.754 64.8915C87.6734 64.9498 87.573 64.9737 87.4748 64.958C87.3766 64.9423 87.2886 64.8882 87.2303 64.8077C87.1719 64.7271 87.148 64.6267 87.1637 64.5285C87.1794 64.4303 87.2335 64.3423 87.314 64.284C87.4616 64.1772 88.7826 63.2478 89.7286 63.5148C90.7152 63.7932 91.0579 65.244 91.0936 65.4086C91.1055 65.4634 91.105 65.5201 91.0921 65.5747C91.0793 65.6292 91.0543 65.6802 91.0191 65.7239C90.9839 65.7675 90.9394 65.8027 90.8888 65.8269C90.8382 65.851 90.7828 65.8635 90.7268 65.8635H90.7269Z" fill="white"/>
</svg>
