<svg width="54" height="54" viewBox="0 0 54 54" fill="none" xmlns="http://www.w3.org/2000/svg">
<path d="M46.4754 37.7266C42.5216 36.2981 35.9328 34.5938 27 34.5938C18.0672 34.5938 11.4784 36.2981 7.52456 37.7266C4.53769 38.8066 2.53125 41.6753 2.53125 44.8656V52.3125C2.53125 52.7782 2.90925 53.1562 3.375 53.1562H50.625C51.0908 53.1562 51.4688 52.7782 51.4688 52.3125V44.8656C51.4688 41.6753 49.4623 38.8066 46.4754 37.7266Z" fill="#B38AE5"/>
<path d="M27 29.5312C33.9787 29.5312 39.6562 23.8537 39.6562 16.875V13.5C39.6562 6.52134 33.9787 0.84375 27 0.84375C20.0213 0.84375 14.3438 6.52134 14.3438 13.5V16.875C14.3438 23.8537 20.0213 29.5312 27 29.5312Z" fill="#B38AE5"/>
</svg>
