<svg width="20" height="20" viewBox="0 0 20 20" fill="none" xmlns="http://www.w3.org/2000/svg">
<path d="M10 19C14.9706 19 19 14.9706 19 10C19 5.02944 14.9706 1 10 1C5.02944 1 1 5.02944 1 10C1 14.9706 5.02944 19 10 19Z" stroke="#221A28" stroke-width="2" stroke-miterlimit="10" stroke-linecap="square"/>
<path d="M9.99982 15.7272C10.4517 15.7272 10.818 15.3609 10.818 14.909C10.818 14.4571 10.4517 14.0908 9.99982 14.0908C9.54795 14.0908 9.18164 14.4571 9.18164 14.909C9.18164 15.3609 9.54795 15.7272 9.99982 15.7272Z" fill="#221A28"/>
<path d="M8.24316 5.54881C9.86316 4.8329 11.9593 4.91799 12.6753 6.07654C13.3912 7.23508 12.897 8.58263 11.6697 9.62254C10.4424 10.6624 9.9998 11.227 9.9998 12.0452" stroke="#221A28" stroke-width="2" stroke-miterlimit="10" stroke-linecap="square"/>
</svg>
