<svg width="13" height="17" viewBox="0 0 13 17" fill="none" xmlns="http://www.w3.org/2000/svg">
<path d="M9.33447 14.6678H1.33447V1.33447H9.33447V2.6678H10.6678V0.667801C10.6731 0.578859 10.6596 0.489795 10.628 0.406488C10.5963 0.323181 10.5474 0.247528 10.4844 0.184523C10.4214 0.121517 10.3458 0.0725938 10.2624 0.0409818C10.1791 0.00936988 10.0901 -0.00421124 10.0011 0.00113518H0.667802C0.57886 -0.00421124 0.489795 0.00936988 0.406488 0.0409818C0.323181 0.0725938 0.247528 0.121517 0.184523 0.184523C0.121518 0.247528 0.0725939 0.323181 0.0409819 0.406488C0.00936994 0.489795 -0.00421124 0.578859 0.00113518 0.667801V15.3345C-0.00421124 15.4234 0.00936994 15.5125 0.0409819 15.5958C0.0725939 15.6791 0.121518 15.7547 0.184523 15.8177C0.247528 15.8807 0.323181 15.9297 0.406488 15.9613C0.489795 15.9929 0.57886 16.0065 0.667802 16.0011H10.0011C10.0901 16.0065 10.1791 15.9929 10.2624 15.9613C10.3458 15.9297 10.4214 15.8807 10.4844 15.8177C10.5474 15.7547 10.5963 15.6791 10.628 15.5958C10.6596 15.5125 10.6731 15.4234 10.6678 15.3345V13.3345H9.33447V14.6678Z" fill="#444444"/>
<path d="M12.6678 8.00195L8.00114 4.00195V7.33529H3.33447V8.66862H8.00114V12.002L12.6678 8.00195Z" fill="#444444"/>
</svg>
