<svg width="18" height="15" viewBox="0 0 18 15" fill="none" xmlns="http://www.w3.org/2000/svg">
<path fill-rule="evenodd" clip-rule="evenodd" d="M0.00977 1C0.00977 0.44772 0.45748 0 1.00977 0H17C17.5523 0 18 0.44772 18 1V12.3242C18 13.4288 17.1046 14.3242 16 14.3242H2C0.89543 14.3242 0 13.4288 0 12.3242V1.32422C0 1.2766 0.00333 1.22976 0.00977 1.18391V1ZM2 3.22376V12.3242H16V3.2241L11.1215 8.10261C9.9499 9.27421 8.0504 9.27421 6.87885 8.10261L2 3.22376ZM3.57232 1.96765H14.428L9.7073 6.68841C9.3168 7.07891 8.6836 7.07891 8.2931 6.68841L3.57232 1.96765Z" fill="#8F92A1"/>
</svg>
