<svg width="150" height="150" viewBox="0 0 150 150" fill="none" xmlns="http://www.w3.org/2000/svg">
<path d="M96.9685 38.795C96.9685 38.795 89.4774 57.9112 118.576 75.5209C144.418 91.1601 118.035 117.361 103.085 121.72C83.7186 127.368 62.1325 110.355 52.3216 124.35C42.5107 138.344 12.6916 113.31 26.1878 91.4538C42.9765 64.2663 22.9688 63.8463 19.6191 52.0038C17.215 43.5045 33.3982 20.0805 52.4434 27.4205C68.4696 33.5968 71.3279 26.9476 75.1708 23.0319C80.713 17.3843 101.194 21.2807 96.9685 38.795Z" fill="#DAD6F9"/>
<path d="M64.2713 101.931C59.4325 101.711 53.9339 95.9196 56.3533 94.38C58.7727 92.8404 58.4794 89.6146 57.5996 89.175C52.1744 87.0489 50.8547 82.2835 49.6817 76.1984C48.5087 70.1133 49.1684 50.7584 49.1684 50.7584L55.9867 47.3126L74.8286 46.2129L80.1805 55.084C80.1805 55.084 78.2187 60.3802 78.0544 65.6793C79.3389 64.653 81.5824 63.2395 83.2594 64.2483C84.3445 64.8993 84.9985 65.9169 85.2769 67.0548C85.6376 68.5298 85.3649 70.2131 84.579 71.5797C84.0335 72.5298 83.394 73.4772 82.5086 74.2047C81.2561 75.234 79.5086 75.8177 76.8135 75.3426C76.922 76.7883 79.7402 76.8501 79.7402 78.325C79.7402 79.718 79.6877 81.8442 79.7402 82.6506C80.1801 89.2489 83.7725 91.5216 85.6052 93.7211C87.4379 95.9205 69.1101 102.151 64.2713 101.931Z" fill="#D1ADEB"/>
<path d="M50.2691 74.6578C53.2245 74.6578 55.6203 72.0527 55.6203 68.8392C55.6203 65.6256 53.2245 63.0205 50.2691 63.0205C47.3138 63.0205 44.918 65.6256 44.918 68.8392C44.918 72.0527 47.3138 74.6578 50.2691 74.6578Z" fill="#652494"/>
<path d="M50.2689 73.5046C52.6574 73.5046 54.5937 71.4158 54.5937 68.8392C54.5937 66.2626 52.6574 64.1738 50.2689 64.1738C47.8805 64.1738 45.9442 66.2626 45.9442 68.8392C45.9442 71.4158 47.8805 73.5046 50.2689 73.5046Z" fill="#B38AE5"/>
<path d="M64.3815 75.0976C67.2361 75.0976 69.5502 72.6686 69.5502 69.6723C69.5502 66.676 67.2361 64.2471 64.3815 64.2471C61.5269 64.2471 59.2128 66.676 59.2128 69.6723C59.2128 72.6686 61.5269 75.0976 64.3815 75.0976Z" fill="#652494"/>
<path d="M64.3812 74.2552C66.6536 74.2552 68.4958 72.2037 68.4958 69.673C68.4958 67.1423 66.6536 65.0908 64.3812 65.0908C62.1088 65.0908 60.2666 67.1423 60.2666 69.673C60.2666 72.2037 62.1088 74.2552 64.3812 74.2552Z" fill="#B38AE5"/>
<path d="M55.3627 67.0537C55.3627 67.0537 58.0207 66.0433 59.7714 67.9495C59.7714 68.2795 59.5058 68.8392 59.5058 68.8392C59.5058 68.8392 57.1579 66.9964 55.3627 68.3892C55.0703 67.8127 54.8941 67.1875 55.3627 67.0537Z" fill="#652494"/>
<path d="M69.1152 68.2573L77.973 65.0908L77.8886 65.8747L69.3984 69.4222L69.1152 68.2573Z" fill="#652494"/>
<path d="M33.1332 107.29C32.9377 106.759 32.8609 106.192 32.9082 105.628C32.9556 105.064 33.1259 104.518 33.4072 104.027L35.6787 100.025C35.6787 100.025 35.9719 98.4608 42.6191 97.5321C49.2663 96.6035 55.661 94.9331 56.3534 94.3796C56.3534 94.3796 68.0992 104.469 85.3934 93.4736C85.3934 93.4736 99.5109 101.442 102.737 101.735C104.632 101.908 106.105 105.639 106.998 108.688C107.146 109.194 107.189 109.725 107.123 110.249C107.058 110.772 106.886 111.276 106.617 111.73C106.349 112.184 105.99 112.578 105.563 112.888C105.136 113.197 104.65 113.416 104.135 113.53C89.8626 116.705 40.2311 126.252 33.1332 107.29Z" fill="#652494"/>
<path d="M82.5092 74.2031C80.8347 78.1886 79.6909 79.8656 78.3478 79.7164C76.9461 79.561 76.5033 77.2939 76.5971 75.2999C79.4153 75.8483 81.2247 75.2589 82.5092 74.2031Z" fill="#9E51D5"/>
<path d="M85.3129 66.9601C85.3012 66.9923 85.2894 67.0246 85.2777 67.054C84.9991 65.9161 84.3452 64.8985 83.2602 64.2475C81.5388 63.2125 79.2191 64.7284 77.9523 65.7636C78.1928 61.1477 77.7881 55.9248 75.269 54.7899C70.8701 52.8103 70.6912 53.2503 67.958 53.3969C65.392 53.5347 59.1016 53.9306 58.0342 53.3119C58.738 53.9719 62.0606 56.8045 67.3598 57.0626C67.958 57.5025 67.5709 57.8691 66.9848 57.7957C66.3986 57.7224 58.4069 57.5758 52.3951 50.0244C52.3951 50.0244 48.9083 56.5465 48.9845 62.4144C48.9845 62.4144 46.7495 58.0155 48.1429 51.7104C48.9845 47.0183 51.1488 47.4579 51.1488 47.4579C51.1488 47.4579 49.6819 36.9744 59.7259 37.9275C62.6584 38.2941 67.6439 42.6196 71.0164 42.5463C74.3888 42.4729 77.4681 42.693 77.4681 42.693C77.4681 42.693 82.2335 41.9598 83.04 48.4115C83.075 49.7103 84.0125 50.2956 86.5591 50.6109C89.1842 50.9359 88.7585 57.7225 85.3129 66.9601Z" fill="#9E51D5"/>
<path d="M109.292 122.712C116.033 122.712 121.499 117.247 121.499 110.505C121.499 103.763 116.033 98.2979 109.292 98.2979C102.55 98.2979 97.0847 103.763 97.0847 110.505C97.0847 117.247 102.55 122.712 109.292 122.712Z" fill="#9E51D5" stroke="white" stroke-width="15" stroke-miterlimit="10"/>
<path d="M111.554 110.053H110.036C110.024 110.053 110.012 110.051 110.002 110.046C109.991 110.042 109.981 110.035 109.973 110.027C109.964 110.018 109.958 110.008 109.953 109.998C109.949 109.987 109.946 109.975 109.946 109.963V108.443C109.945 108.325 109.898 108.213 109.814 108.13C109.731 108.047 109.618 108 109.5 108C109.382 108 109.269 108.047 109.186 108.13C109.102 108.213 109.055 108.325 109.054 108.443V109.963C109.054 109.987 109.044 110.01 109.027 110.027C109.011 110.043 108.988 110.053 108.964 110.053H107.446C107.328 110.053 107.214 110.1 107.131 110.184C107.047 110.268 107 110.381 107 110.5C107 110.618 107.047 110.732 107.131 110.816C107.214 110.9 107.328 110.947 107.446 110.947H108.964C108.976 110.947 108.988 110.949 108.998 110.954C109.009 110.958 109.019 110.965 109.027 110.973C109.036 110.982 109.042 110.991 109.047 111.002C109.051 111.013 109.054 111.025 109.054 111.036V112.557C109.055 112.675 109.102 112.787 109.186 112.87C109.269 112.953 109.382 113 109.5 113C109.618 113 109.731 112.953 109.814 112.87C109.898 112.787 109.945 112.675 109.946 112.557V111.036C109.946 111.025 109.949 111.013 109.953 111.002C109.958 110.991 109.964 110.982 109.973 110.973C109.981 110.965 109.991 110.958 110.002 110.954C110.012 110.949 110.024 110.947 110.036 110.947H111.554C111.672 110.947 111.786 110.9 111.869 110.816C111.953 110.732 112 110.618 112 110.5C112 110.381 111.953 110.268 111.869 110.184C111.786 110.1 111.672 110.053 111.554 110.053Z" fill="white"/>
</svg>
