<svg width="22" height="22" viewBox="0 0 22 22" fill="none" xmlns="http://www.w3.org/2000/svg">
<path fill-rule="evenodd" clip-rule="evenodd" d="M4 0C1.79086 0 0 1.79086 0 4V18C0 20.2091 1.79086 22 4 22H18C20.2091 22 22 20.2091 22 18V4C22 1.79086 20.2091 0 18 0H4ZM18 2H4C2.89543 2 2 2.89543 2 4V18C2 19.1046 2.89543 20 4 20H18C19.1046 20 20 19.1046 20 18V4C20 2.89543 19.1046 2 18 2ZM6.75732 7.46448L8.17154 6.05026L11 8.87869L13.8284 6.05029L15.2426 7.46451L11 11.7071L6.75732 7.46448ZM8.17154 10.2929L6.75732 11.7071L10.9999 15.9498L15.2426 11.7071L13.8284 10.2929L11 13.1213L8.17154 10.2929Z" fill="#DE350B"/>
</svg>
