<svg width="22" height="22" viewBox="0 0 22 22" fill="none" xmlns="http://www.w3.org/2000/svg">
<path fill-rule="evenodd" clip-rule="evenodd" d="M14.6668 11.0002C14.6668 13.0252 13.0252 14.6668 11.0001 14.6668C8.9751 14.6668 7.33348 13.0252 7.33348 11.0002C7.33348 8.97512 8.9751 7.3335 11.0001 7.3335C13.0252 7.3335 14.6668 8.97512 14.6668 11.0002ZM12.8335 11.0002C12.8335 12.0127 12.0127 12.8335 11.0001 12.8335C9.98762 12.8335 9.16681 12.0127 9.16681 11.0002C9.16681 9.98764 9.98762 9.16683 11.0001 9.16683C12.0127 9.16683 12.8335 9.98764 12.8335 11.0002Z" fill="#221A28"/>
<path fill-rule="evenodd" clip-rule="evenodd" d="M2.22734 7.86174L3.89577 4.97194C4.11115 4.59887 4.55725 4.42612 4.96772 4.55681L6.65161 5.09294C6.8763 4.92771 7.10944 4.77615 7.34966 4.6386C7.57851 4.507 7.81512 4.38739 8.05865 4.28063L8.43629 2.55427C8.52834 2.13345 8.901 1.8335 9.33178 1.8335H12.6686C13.0994 1.8335 13.4721 2.13345 13.5641 2.55427L13.9418 4.28063C14.2002 4.39391 14.4508 4.52166 14.6926 4.66285C14.918 4.7939 15.1371 4.93737 15.3486 5.09294L17.0325 4.55681C17.443 4.42612 17.8891 4.59887 18.1045 4.97194L19.7729 7.86174C19.9883 8.23481 19.9149 8.70751 19.5964 8.99765L18.2902 10.1879C18.3202 10.4583 18.3349 10.7291 18.3347 10.9991C18.335 11.2699 18.3202 11.5414 18.2902 11.8125L19.5964 13.0027C19.9149 13.2928 19.9883 13.7655 19.7729 14.1386L18.1045 17.0284C17.8891 17.4015 17.443 17.5742 17.0325 17.4435L15.3486 16.9074C15.1345 17.0649 14.9127 17.2099 14.6843 17.3423C14.4451 17.4816 14.1972 17.6077 13.9418 17.7197L13.5641 19.4461C13.4721 19.8669 13.0994 20.1668 12.6686 20.1668H9.33178C8.901 20.1668 8.52834 19.8669 8.43629 19.4461L8.05865 17.7197C7.81795 17.6142 7.58401 17.4961 7.35766 17.3663C7.11461 17.2276 6.8788 17.0745 6.65161 16.9074L4.96772 17.4435C4.55725 17.5742 4.11115 17.4015 3.89576 17.0284L2.22734 14.1386C2.01195 13.7655 2.08538 13.2928 2.4038 13.0027L3.71005 11.8125C3.68003 11.5417 3.66531 11.2705 3.66556 11.0002C3.66531 10.7298 3.68003 10.4586 3.71005 10.1879L2.4038 8.99765C2.08538 8.70751 2.01195 8.2348 2.22734 7.86174ZM11.9308 3.66683L12.3504 5.58474L13.2057 5.9597C13.3991 6.0445 13.5869 6.14019 13.7682 6.24606L13.7711 6.24777C13.9401 6.34602 14.1042 6.45349 14.2625 6.56994L15.0149 7.1232L16.8857 6.52758L17.8163 8.13944L16.3651 9.46172L16.468 10.3899C16.4905 10.5923 16.5015 10.7952 16.5013 10.9977L16.5013 11.0011C16.5016 11.2041 16.4905 11.4075 16.468 11.6104L16.3651 12.5386L17.8163 13.8609L16.8857 15.4728L15.0149 14.8771L14.2625 15.4304C14.1022 15.5483 13.9361 15.657 13.7649 15.7562L13.762 15.7579C13.5826 15.8623 13.3969 15.9568 13.2057 16.0406L12.3504 16.4156L11.9308 18.3335H10.0696L9.65006 16.4156L8.79474 16.0406C8.61456 15.9616 8.43931 15.8732 8.26962 15.7759L8.26663 15.7742C8.08439 15.6701 7.90774 15.5554 7.73769 15.4304L6.9853 14.8771L5.11457 15.4728L4.18396 13.8609L5.63515 12.5386L5.53221 11.6104C5.50974 11.4078 5.49871 11.2046 5.4989 11.0019L5.49889 10.9984C5.49871 10.7957 5.50974 10.5926 5.53221 10.3899L5.63515 9.46172L4.18396 8.13943L5.11457 6.52758L6.9853 7.1232L7.73769 6.56994C7.90588 6.44627 8.08053 6.33272 8.26064 6.22959L8.26363 6.22787C8.43519 6.12921 8.61244 6.03962 8.79473 5.9597L9.65006 5.58474L10.0696 3.66683H11.9308Z" fill="#221A28"/>
</svg>
