<svg width="64" height="64" viewBox="0 0 64 64" fill="none" xmlns="http://www.w3.org/2000/svg">
<path d="M47 31C52.539 31 57 24.435 57 19C57 13.486 52.514 9 47 9C41.486 9 37 13.486 37 19C37 24.435 41.461 31 47 31Z" fill="#DAD6F9"/>
<path d="M21 33C27.758 33 33 25.474 33 19C33 12.383 27.617 7 21 7C14.383 7 9 12.383 9 19C9 25.474 14.242 33 21 33Z" fill="#B38AE5"/>
<path d="M58.628 39.184C56.127 38.188 52.0791 37 47 37C41.921 37 37.8731 38.188 35.3721 39.184C35.1221 39.284 34.884 39.406 34.649 39.533C35.455 39.853 36.204 40.177 36.848 40.491C40.585 42.312 43 46.189 43 50.37V51H62C62.553 51 63 50.552 63 50V45.676C63 42.791 61.284 40.242 58.628 39.184Z" fill="#DAD6F9"/>
<path d="M35.972 42.289C32.893 40.789 27.795 39 21 39C14.205 39 9.107 40.789 6.028 42.289C2.974 43.777 1 46.949 1 50.37V56C1 56.552 1.447 57 2 57H40C40.553 57 41 56.552 41 56V50.37C41 46.949 39.026 43.777 35.972 42.289Z" fill="#B38AE5"/>
</svg>
