<svg width="28" height="20" viewBox="0 0 28 20" fill="none" xmlns="http://www.w3.org/2000/svg">
<path fill-rule="evenodd" clip-rule="evenodd" d="M13.6777 0L14.6792 1.59039L16.7167 1.99578L15.3008 3.33669L15.5426 5.23892L13.6777 4.39695L11.7784 5.23892L12.0547 3.33669L10.6388 1.99578L12.6763 1.59039L13.6777 0ZM24.7264 11.8383L21.6487 14.0117C19.8504 15.2943 17.3606 14.5817 16.4615 12.5509L14.1099 7.38468C13.9024 6.95713 13.3146 6.95713 13.1417 7.38468L10.8593 12.5153C9.92559 14.6174 7.36658 15.2943 5.56835 13.9404L2.59436 11.6958C2.17938 11.3751 1.5915 11.8027 1.76441 12.3371L4.87673 18.9285C4.91131 19.0354 5.01505 19.071 5.08421 19.071H22.2711C22.3749 19.071 22.444 18.9998 22.4786 18.9285L25.5218 12.5153C25.7292 11.9808 25.1414 11.5533 24.7264 11.8383ZM2.144 10.271C2.144 10.881 1.66405 11.3755 1.072 11.3755C0.479952 11.3755 0 10.881 0 10.271C0 9.66099 0.479952 9.16648 1.072 9.16648C1.66405 9.16648 2.144 9.66099 2.144 10.271ZM27.2505 10.271C27.2505 10.881 26.7705 11.3755 26.1785 11.3755C25.5864 11.3755 25.1064 10.881 25.1064 10.271C25.1064 9.66099 25.5864 9.16648 26.1785 9.16648C26.7705 9.16648 27.2505 9.66099 27.2505 10.271Z" fill="url(#paint0_linear)"/>
<defs>
<linearGradient id="paint0_linear" x1="10.0512" y1="6.03037" x2="17.5354" y2="6.03037" gradientUnits="userSpaceOnUse">
<stop stop-color="#F99930"/>
<stop offset="0.9998" stop-color="#EF6E77"/>
<stop offset="0.9999" stop-color="#F37E5D"/>
<stop offset="1" stop-color="#F37D5E"/>
</linearGradient>
</defs>
</svg>
