<svg width="26" height="26" viewBox="0 0 26 26" fill="none" xmlns="http://www.w3.org/2000/svg">
<path d="M5.18742 9.40804C5.18742 11.4862 6.75513 13.0539 8.83325 13.0539C10.9114 13.0539 12.4791 11.4862 12.4791 9.40804C12.4791 7.32991 10.9114 5.76221 8.83325 5.76221C6.75513 5.76221 5.18742 7.32991 5.18742 9.40804ZM20.2916 8.83304H18.2083V11.958H15.0833V14.0414H18.2083V17.1664H20.2916V14.0414H23.4166V11.958H20.2916V8.83304ZM4.66659 20.2914H15.0833V19.2497C15.0833 16.3778 12.7468 14.0414 9.87492 14.0414H7.79159C4.91971 14.0414 2.58325 16.3778 2.58325 19.2497V20.2914H4.66659Z" fill="#9E51D5"/>
</svg>
