<svg width="25" height="25" viewBox="0 0 25 25" fill="none" xmlns="http://www.w3.org/2000/svg">
<circle cx="12.5" cy="12.5" r="12.5" fill="white"/>
<path d="M10.3908 18.0634L6.02734 12.5355C5.96202 12.4526 6.02097 12.33 6.1277 12.33L10.3908 18.0634ZM10.3908 18.0634C10.5947 18.3215 10.9866 18.3215 11.1921 18.0634H10.3908ZM7.24126 12.1261H7.24151C7.34931 12.1262 7.45568 12.1507 7.55264 12.1979C7.64959 12.245 7.73461 12.3135 7.80132 12.3982M7.24126 12.1261L10.6608 16.3504L10.7906 16.1859M7.24126 12.1261H6.1277C5.85088 12.1261 5.69631 12.445 5.86721 12.6617L5.86728 12.6618L10.2307 18.1898L10.2308 18.1899C10.5166 18.5517 11.0648 18.5507 11.3516 18.1905L11.3522 18.1898L19.1316 8.33168C19.1318 8.33138 19.1321 8.33108 19.1323 8.33079C19.3065 8.1127 19.1455 7.79609 18.8723 7.79609H17.7587C17.5407 7.79609 17.3331 7.89598 17.1984 8.0685C17.1983 8.06867 17.1982 8.06884 17.198 8.06902L10.7906 16.1859M7.24126 12.1261L10.9205 16.3504L10.7906 16.1859M7.80132 12.3982L7.64112 12.5243L7.80119 12.398L7.80132 12.3982ZM7.80132 12.3982L10.7906 16.1859" fill="#9E51D5" stroke="#9E51D5" stroke-width="0.407827"/>
</svg>
