<svg width="12" height="11" viewBox="0 0 12 11" fill="none" xmlns="http://www.w3.org/2000/svg">
<path fill-rule="evenodd" clip-rule="evenodd" d="M10.8755 0.342302C10.466 -0.0671805 9.80207 -0.0671255 9.39252 0.342424L5.93369 3.80125L2.54105 0.408612C2.13157 -0.000870114 1.46761 -0.000815122 1.05806 0.408735C0.648512 0.818285 0.648457 1.48224 1.05794 1.89172L4.45058 5.28436L0.99175 8.74319C0.5822 9.15274 0.582145 9.8167 0.991628 10.2262C1.40111 10.6357 2.06507 10.6356 2.47462 10.2261L5.93344 6.76723L9.32607 10.1599C9.73556 10.5693 10.3995 10.5693 10.8091 10.1597C11.2186 9.75019 11.2187 9.08623 10.8092 8.67675L7.41656 5.28412L10.8754 1.82529C11.2849 1.41574 11.285 0.751784 10.8755 0.342302Z" fill="white"/>
</svg>
